<svg xmlns="http://www.w3.org/2000/svg" style="display: none;">

    <!-- Settings Icon -->
    <symbol id="icon-settings" viewBox="0 -960 960 960">
        <path d="m370-80-16-128q-13-5-24.5-12T307-235l-119 50L78-375l103-78q-1-7-1-13.5v-27q0-6.5 1-13.5L78-585l110-190 119 50q11-8 23-15t24-12l16-128h220l16 128q13 5 24.5 12t22.5 15l119-50 110 190-103 78q1 7 1 13.5v27q0 6.5-2 13.5l103 78-110 190-118-50q-11 8-23 15t-24 12L590-80H370Zm70-80h79l14-106q31-8 57.5-23.5T639-327l99 41 39-68-86-65q5-14 7-29.5t2-31.5q0-16-2-31.5t-7-29.5l86-65-39-68-99 42q-22-23-48.5-38.5T533-694l-13-106h-79l-14 106q-31 8-57.5 23.5T321-633l-99-41-39 68 86 64q-5 15-7 30t-2 32q0 16 2 31t7 30l-86 65 39 68 99-42q22 23 48.5 38.5T427-266l13 106Zm42-180q58 0 99-41t41-99q0-58-41-99t-99-41q-59 0-99.5 41T342-480q0 58 40.5 99t99.5 41Zm-2-140Z"/>
    </symbol>

    <!-- Instagram Icon -->
    <symbol id="icon-instagram" viewBox="0 0 24 24">
        <path d="M8.6672 12C8.6672 10.1591 10.1591 8.6664 12 8.6664C13.8409 8.6664 15.3336 10.1591 15.3336 12C15.3336 13.8409 13.8409 15.3336 12 15.3336C10.1591 15.3336 8.6672 13.8409 8.6672 12ZM6.86512 12C6.86512 14.836 9.164 17.1349 12 17.1349C14.836 17.1349 17.1349 14.836 17.1349 12C17.1349 9.164 14.836 6.86512 12 6.86512C9.164 6.86512 6.86512 9.164 6.86512 12ZM16.1382 6.66152C16.1381 6.89886 16.2084 7.13089 16.3401 7.32829C16.4719 7.52568 16.6593 7.67956 16.8785 7.77047C17.0977 7.86138 17.339 7.88525 17.5718 7.83904C17.8046 7.79283 18.0185 7.67862 18.1863 7.51087C18.3542 7.34311 18.4686 7.12934 18.515 6.89658C18.5614 6.66382 18.5377 6.42253 18.447 6.20322C18.3563 5.98392 18.2025 5.79644 18.0052 5.6645C17.808 5.53257 17.576 5.4621 17.3386 5.462H17.3382C17.02 5.46215 16.715 5.58856 16.49 5.81347C16.265 6.03837 16.1384 6.34339 16.1382 6.66152ZM7.96 20.1398C6.98504 20.0954 6.45512 19.933 6.10296 19.7958C5.63608 19.614 5.30296 19.3975 4.95272 19.0478C4.60248 18.698 4.38568 18.3652 4.20472 17.8983C4.06744 17.5463 3.90504 17.0162 3.86072 16.0413C3.81224 14.9872 3.80256 14.6706 3.80256 12.0001C3.80256 9.3296 3.81304 9.01384 3.86072 7.95888C3.90512 6.98392 4.06872 6.45488 4.20472 6.10184C4.38648 5.63496 4.60296 5.30184 4.95272 4.9516C5.30248 4.60136 5.63528 4.38456 6.10296 4.2036C6.45496 4.06632 6.98504 3.90392 7.96 3.8596C9.01408 3.81112 9.33072 3.80144 12 3.80144C14.6693 3.80144 14.9862 3.81192 16.0412 3.8596C17.0162 3.904 17.5452 4.0676 17.8982 4.2036C18.3651 4.38456 18.6982 4.60184 19.0485 4.9516C19.3987 5.30136 19.6147 5.63496 19.7965 6.10184C19.9338 6.45384 20.0962 6.98392 20.1405 7.95888C20.189 9.01384 20.1986 9.3296 20.1986 12.0001C20.1986 14.6706 20.189 14.9863 20.1405 16.0413C20.0961 17.0162 19.9329 17.5462 19.7965 17.8983C19.6147 18.3652 19.3982 18.6983 19.0485 19.0478C18.6987 19.3972 18.3651 19.614 17.8982 19.7958C17.5462 19.933 17.0162 20.0954 16.0412 20.1398C14.9871 20.1882 14.6705 20.1979 12 20.1979C9.32952 20.1979 9.01376 20.1882 7.96 20.1398ZM7.8772 2.06056C6.81264 2.10904 6.0852 2.27784 5.44992 2.52504C4.792 2.78032 4.23504 3.1228 3.67848 3.67848C3.12192 4.23416 2.78032 4.792 2.52504 5.44992C2.27784 6.0856 2.10904 6.81264 2.06056 7.8772C2.01128 8.94344 2 9.28432 2 12C2 14.7157 2.01128 15.0566 2.06056 16.1228C2.10904 17.1874 2.27784 17.9144 2.52504 18.5501C2.78032 19.2076 3.122 19.7661 3.67848 20.3215C4.23496 20.877 4.792 21.219 5.44992 21.475C6.0864 21.7222 6.81264 21.891 7.8772 21.9394C8.944 21.9879 9.28432 22 12 22C14.7157 22 15.0566 21.9887 16.1228 21.9394C17.1874 21.891 17.9144 21.7222 18.5501 21.475C19.2076 21.219 19.765 20.8772 20.3215 20.3215C20.8781 19.7658 21.219 19.2076 21.475 18.5501C21.7222 17.9144 21.8918 17.1874 21.9394 16.1228C21.9879 15.0558 21.9992 14.7157 21.9992 12C21.9992 9.28432 21.9879 8.94344 21.9394 7.8772C21.891 6.81256 21.7222 6.0852 21.475 5.44992C21.219 4.7924 20.8772 4.23504 20.3215 3.67848C19.7658 3.12192 19.2076 2.78032 18.5509 2.52504C17.9144 2.27784 17.1874 2.10824 16.1236 2.06056C15.0574 2.01208 14.7165 2 12.0008 2C9.28512 2 8.944 2.01128 7.8772 2.06056Z"/>
    </symbol>

    <!-- WhatsApp Icon -->
    <symbol id="icon-whatsapp" viewBox="0 0 24 24">
        <path d="M19.074 4.89389C17.2091 3.02894 14.6689 2 12.0644 2C6.59814 2 2.12869 6.4373 2.12869 11.9035C2.12869 13.672 2.57885 15.3441 3.44702 16.8875L2.03223 22L7.33769 20.6495C8.78464 21.4212 10.4245 21.8714 12.0965 21.8714C17.5306 21.8392 21.9679 17.4019 21.9679 11.9035C21.9679 9.26688 20.939 6.791 19.074 4.89389ZM12.0322 20.1672C10.5853 20.1672 9.07403 19.7492 7.82001 18.9775L7.49846 18.7846L4.37949 19.5884L5.24766 16.5659L5.05473 16.2444C4.25088 14.926 3.80072 13.3826 3.80072 11.8392C3.80072 7.30547 7.46631 3.63987 12.0322 3.63987C14.2187 3.63987 16.2766 4.50804 17.82 6.05145C19.3634 7.59486 20.2316 9.68489 20.2316 11.9035C20.2959 16.5016 16.566 20.1672 12.0322 20.1672ZM16.566 13.9936C16.3088 13.865 15.119 13.254 14.8297 13.2219C14.6046 13.1254 14.4116 13.0932 14.283 13.3505C14.1544 13.6077 13.6399 14.1222 13.5113 14.3151C13.3827 14.4437 13.2541 14.508 12.9647 14.3473C12.7075 14.2187 11.9358 13.9936 10.9711 13.0932C10.2316 12.4502 9.71711 11.6463 9.62065 11.3569C9.49203 11.0997 9.5885 11.0032 9.74927 10.8424C9.87788 10.7138 10.0065 10.5852 10.103 10.3923C10.2316 10.2637 10.2316 10.135 10.3602 9.97428C10.4888 9.84566 10.3924 9.65274 10.328 9.52412C10.2316 9.3955 9.78142 8.17364 9.55634 7.65917C9.36342 7.1447 9.13834 7.24116 9.00972 7.24116C8.8811 7.24116 8.68817 7.24116 8.55956 7.24116C8.43094 7.24116 8.1094 7.27331 7.91647 7.5627C7.69139 7.81994 7.0483 8.43087 7.0483 9.65273C7.0483 10.8746 7.91647 12 8.07724 12.2251C8.20586 12.3537 9.84573 14.8939 12.2895 15.9871C12.8682 16.2444 13.3184 16.4051 13.7043 16.5338C14.283 16.7267 14.8297 16.6624 15.2477 16.6302C15.73 16.5981 16.6946 16.0514 16.9197 15.4405C17.1126 14.8939 17.1126 14.3473 17.0483 14.2508C16.984 14.1865 16.7911 14.09 16.566 13.9936Z"/>
    </symbol>

    <!-- Telegram Icon -->
    <symbol id="icon-telegram" viewBox="0 0 24 24">
        <path d="M21.936 5.17077L18.9059 19.3546C18.6802 20.3539 18.1 20.5795 17.2618 20.1282L12.7166 16.7757L10.4923 18.9033C10.2666 19.1289 10.041 19.3546 9.5252 19.3546L9.8798 14.6804L18.3578 6.97598C18.7124 6.62138 18.2611 6.49244 17.8098 6.78256L7.26869 13.4232L2.72343 12.037C1.72412 11.7147 1.72412 11.0377 2.94908 10.5864L20.6144 3.72015C21.4847 3.46227 22.2262 3.91357 21.936 5.17077Z"/>
    </symbol>

    <!-- Email Icon -->
    <symbol id="icon-email" viewBox="0 0 66.66 55.79">
        <path d="M54.28,55.79H12.38c-6.83,0-12.38-5.55-12.38-12.38V12.38C0,5.55,5.55,0,12.38,0h41.9c6.83,0,12.38,5.55,12.38,12.38v31.03c0,6.83-5.55,12.38-12.38,12.38ZM12.38,5.73c-3.67,0-6.65,2.98-6.65,6.65v31.03c0,3.67,2.98,6.65,6.65,6.65h41.9c3.67,0,6.65-2.98,6.65-6.65V12.38c0-3.67-2.98-6.65-6.65-6.65H12.38Z"/>
        <path d="M33.33,30.76c-3.71,0-6.52-2.04-11.6-5.76l-.4-.29c-6.11-4.45-10.28-7.5-10.28-7.5-1.28-.93-1.55-2.72-.62-4,.93-1.28,2.73-1.55,4-.62,0,0,4.17,3.05,10.27,7.5l.4.29c4.54,3.31,6.45,4.66,8.23,4.66s3.69-1.34,8.23-4.66l.39-.29c6.1-4.45,10.27-7.5,10.27-7.5,1.28-.93,3.07-.65,4,.62s.65,3.07-.62,4c0,0-4.17,3.05-10.28,7.5l-.39.29c-5.09,3.71-7.89,5.76-11.6,5.76Z"/>
    </symbol>

    <!-- Phone Icon -->
    <symbol id="icon-phone" viewBox="0 0 24 24" xmlns="http://www.w3.org/2000/svg">
        <path d="M3 5.5C3 14.0604 9.93959 21 18.5 21C18.8862 21 19.2691 20.9859 19.6483 20.9581C20.0834 20.9262 20.3009 20.9103 20.499 20.7963C20.663 20.7019 20.8185 20.5345 20.9007 20.364C21 20.1582 21 19.9181 21 19.438V16.6207C21 16.2169 21 16.015 20.9335 15.842C20.8749 15.6891 20.7795 15.553 20.6559 15.4456C20.516 15.324 20.3262 15.255 19.9468 15.117L16.74 13.9509C16.2985 13.7904 16.0777 13.7101 15.8683 13.7237C15.6836 13.7357 15.5059 13.7988 15.3549 13.9058C15.1837 14.0271 15.0629 14.2285 14.8212 14.6314L14 16C11.3501 14.7999 9.2019 12.6489 8 10L9.36863 9.17882C9.77145 8.93713 9.97286 8.81628 10.0942 8.64506C10.2012 8.49408 10.2643 8.31637 10.2763 8.1317C10.2899 7.92227 10.2096 7.70153 10.0491 7.26005L8.88299 4.05321C8.745 3.67376 8.67601 3.48403 8.55442 3.3441C8.44701 3.22049 8.31089 3.12515 8.15802 3.06645C7.98496 3 7.78308 3 7.37932 3H4.56201C4.08188 3 3.84181 3 3.63598 3.09925C3.4655 3.18146 3.29814 3.33701 3.2037 3.50103C3.08968 3.69907 3.07375 3.91662 3.04189 4.35173C3.01413 4.73086 3 5.11378 3 5.5Z" stroke-linecap="round" stroke-linejoin="round"/>
    </symbol>

    <!-- Arrow Left -->
    <symbol id="icon-arrow-left" viewBox="0 0 24 24" xmlns="http://www.w3.org/2000/svg">
        <path d="M6 12H18M6 12L11 7M6 12L11 17" stroke-width="2" stroke-linecap="round" stroke-linejoin="round"/>
    </symbol>

</svg>